<svg version="1.1" id="_x31_" xmlns="http://www.w3.org/2000/svg" xmlns:xlink="http://www.w3.org/1999/xlink" x="0px" y="0px"
	 viewBox="0 0 99.59 115" style="enable-background:new 0 0 99.59 115;" xml:space="preserve">
<g id="letters">
	<path d="M33.14,62.72c-0.56-0.3-0.98-0.72-1.29-1.26c-0.3-0.54-0.46-1.16-0.46-1.86v-7.57c0-0.05,0.02-0.1,0.06-0.14
		c0.04-0.04,0.08-0.06,0.14-0.06h1.87c0.05,0,0.1,0.02,0.14,0.06c0.04,0.04,0.06,0.08,0.06,0.14v7.68c0,0.46,0.13,0.83,0.38,1.1
		c0.26,0.28,0.6,0.42,1.02,0.42c0.43,0,0.77-0.14,1.02-0.42c0.26-0.28,0.38-0.65,0.38-1.1v-7.68c0-0.05,0.02-0.1,0.06-0.14
		c0.04-0.04,0.08-0.06,0.14-0.06h1.87c0.05,0,0.1,0.02,0.14,0.06c0.04,0.04,0.06,0.08,0.06,0.14v7.57c0,0.7-0.15,1.33-0.46,1.86
		c-0.3,0.54-0.73,0.96-1.29,1.26c-0.55,0.3-1.19,0.45-1.92,0.45C34.34,63.17,33.7,63.02,33.14,62.72z"/>
	<path d="M46.01,52.26c0.5,0.29,0.88,0.69,1.15,1.22s0.41,1.12,0.41,1.79c0,0.66-0.14,1.25-0.41,1.75c-0.27,0.51-0.66,0.9-1.15,1.18
		c-0.5,0.28-1.06,0.42-1.7,0.42h-1.73c-0.05,0-0.08,0.03-0.08,0.08v4.16c0,0.05-0.02,0.1-0.06,0.14c-0.04,0.04-0.08,0.06-0.14,0.06
		h-1.87c-0.05,0-0.1-0.02-0.14-0.06c-0.04-0.04-0.06-0.08-0.06-0.14V52.02c0-0.05,0.02-0.1,0.06-0.14c0.04-0.04,0.08-0.06,0.14-0.06
		h3.87C44.95,51.83,45.52,51.97,46.01,52.26z M44.94,56.41c0.25-0.27,0.38-0.64,0.38-1.1c0-0.47-0.13-0.84-0.38-1.12
		c-0.25-0.28-0.58-0.42-1-0.42h-1.36c-0.05,0-0.08,0.03-0.08,0.08v2.88c0,0.05,0.03,0.08,0.08,0.08h1.36
		C44.36,56.82,44.69,56.68,44.94,56.41z"/>
</g>
<g id="arrow">
	<path d="M8,13.86L83.59,57.5L8,101.14V13.86 M0,0v115l99.59-57.5L0,0L0,0z"/>
</g>
</svg>
