<svg version="1.1" id="_x31_" xmlns="http://www.w3.org/2000/svg" xmlns:xlink="http://www.w3.org/1999/xlink" x="0px" y="0px"
	 viewBox="0 0 99.59 115" style="enable-background:new 0 0 99.59 115;" xml:space="preserve">
<g id="letters">
	<path d="M43.42,63.04c-0.04-0.04-0.06-0.08-0.06-0.14V52.08c0-0.05,0.02-0.1,0.06-0.14c0.04-0.04,0.08-0.06,0.14-0.06H47
		c0.71,0,1.35,0.13,1.9,0.4c0.55,0.27,0.97,0.65,1.27,1.14c0.3,0.49,0.45,1.06,0.45,1.71v4.7c0,0.65-0.15,1.22-0.45,1.71
		c-0.3,0.49-0.72,0.87-1.27,1.14c-0.55,0.27-1.18,0.4-1.9,0.4h-3.44C43.51,63.09,43.46,63.07,43.42,63.04z M45.7,61.16l1.31-0.02
		c0.39,0,0.71-0.14,0.96-0.42c0.25-0.28,0.37-0.66,0.38-1.13V55.4c0-0.48-0.12-0.86-0.37-1.14s-0.57-0.42-0.98-0.42H45.7
		c-0.05,0-0.08,0.03-0.08,0.08v7.17C45.62,61.13,45.65,61.16,45.7,61.16z"/>
	<path d="M53.7,62.79c-0.56-0.3-1-0.72-1.3-1.26c-0.31-0.54-0.46-1.18-0.46-1.9v-4.26c0-0.71,0.16-1.34,0.46-1.89
		c0.31-0.54,0.74-0.96,1.3-1.26c0.56-0.3,1.21-0.45,1.94-0.45s1.39,0.15,1.95,0.45s1,0.72,1.31,1.26c0.31,0.54,0.46,1.17,0.46,1.89
		v4.26c0,0.73-0.15,1.36-0.46,1.9c-0.31,0.54-0.75,0.97-1.31,1.26c-0.57,0.3-1.22,0.45-1.95,0.45S54.26,63.09,53.7,62.79z
		 M56.71,60.86c0.27-0.29,0.4-0.67,0.4-1.14V55.3c0-0.48-0.13-0.87-0.4-1.16c-0.27-0.29-0.62-0.44-1.07-0.44
		c-0.44,0-0.79,0.15-1.06,0.44c-0.27,0.29-0.4,0.68-0.4,1.16v4.42c0,0.47,0.13,0.85,0.4,1.14s0.62,0.44,1.06,0.44
		C56.09,61.3,56.45,61.15,56.71,60.86z"/>
	<path d="M62.47,62.93L59.96,52.1v-0.06c0-0.1,0.06-0.14,0.18-0.14h1.97c0.13,0,0.2,0.06,0.21,0.18l1.22,6.14
		c0.01,0.03,0.03,0.05,0.05,0.05s0.04-0.02,0.05-0.05l1.17-6.14c0.01-0.12,0.08-0.18,0.21-0.18h1.78c0.12,0,0.19,0.06,0.21,0.18
		l1.28,6.14c0.01,0.03,0.03,0.05,0.05,0.05s0.04-0.02,0.05-0.05l1.14-6.14c0.01-0.12,0.08-0.18,0.21-0.18h1.9
		c0.14,0,0.19,0.07,0.16,0.21l-2.34,10.82c-0.02,0.12-0.09,0.18-0.21,0.18h-1.81c-0.12,0-0.19-0.06-0.21-0.18l-1.3-6.43
		c-0.01-0.03-0.03-0.05-0.05-0.05s-0.04,0.02-0.05,0.05l-1.18,6.43c-0.01,0.12-0.08,0.18-0.21,0.18h-1.74
		C62.57,63.09,62.5,63.04,62.47,62.93z"/>
	<path d="M72.93,63.04c-0.04-0.04-0.06-0.08-0.06-0.14V52.08c0-0.05,0.02-0.1,0.06-0.14c0.04-0.04,0.08-0.06,0.14-0.06h1.89
		c0.11,0,0.18,0.05,0.22,0.14l3.07,6.38c0.02,0.03,0.04,0.05,0.06,0.04s0.03-0.03,0.03-0.07l-0.02-6.3c0-0.05,0.02-0.1,0.06-0.14
		c0.04-0.04,0.08-0.06,0.14-0.06h1.86c0.05,0,0.1,0.02,0.14,0.06c0.04,0.04,0.06,0.08,0.06,0.14V62.9c0,0.05-0.02,0.1-0.06,0.14
		c-0.04,0.04-0.08,0.06-0.14,0.06h-1.9c-0.1,0-0.17-0.05-0.22-0.14l-3.07-6.43c-0.02-0.03-0.04-0.04-0.06-0.04
		c-0.02,0.01-0.03,0.03-0.03,0.07l0.03,6.35c0,0.05-0.02,0.1-0.06,0.14c-0.04,0.04-0.08,0.06-0.14,0.06h-1.86
		C73.01,63.09,72.97,63.07,72.93,63.04z"/>
</g>
<g id="arrow">
	<path d="M91.59,13.86v87.29L16,57.5L91.59,13.86 M99.59,0L0,57.5L99.59,115V0L99.59,0z"/>
</g>
</svg>
